HIERARCHY
ROOT Hips
{
    OFFSET 0.000000 0.000000 0.000000
    CHANNELS 6 Xposition Yposition Zposition Zrotation Xrotation Yrotation
        JOINT Chest
        {
            OFFSET -0.000000 31.571314 -0.000000
            CHANNELS 3 Zrotation Xrotation Yrotation
            JOINT Neck
            {
                OFFSET -0.000000 23.394884 0.000000
                CHANNELS 3 Zrotation Xrotation Yrotation
                JOINT Head
                {
                    OFFSET -0.000000 10.877778 0.000000
                    CHANNELS 3 Zrotation Xrotation Yrotation
                    End Site
                    {
                        OFFSET -0.000000 16.811111 0.000000
                    }
                }
            }
            JOINT LeftCollar
            {
                OFFSET -0.000000 23.394884 0.000000
                CHANNELS 3 Zrotation Xrotation Yrotation
                JOINT LeftShoulder
                {
                    OFFSET 21.500002 -0.000000 0.000000
                    CHANNELS 3 Zrotation Xrotation Yrotation
                    JOINT LeftElbow
                    {
                        OFFSET 24.792776 0.000000 0.000000
                        CHANNELS 3 Zrotation Xrotation Yrotation
                        JOINT LeftWrist
                        {
                            OFFSET 26.439411 0.000000 0.000000
                            CHANNELS 3 Zrotation Xrotation Yrotation
                            End Site
                            {
                                OFFSET 0.000000 -14.833334 0.000000
                            }
                        }
                    }
                }
            }
            JOINT RightCollar
            {
                OFFSET -0.000000 23.394884 0.000000
                CHANNELS 3 Zrotation Xrotation Yrotation
                JOINT RightShoulder
                {
                    OFFSET -21.500002 0.000000 0.000000
                    CHANNELS 3 Zrotation Xrotation Yrotation
                    JOINT RightElbow
                    {
                        OFFSET -24.792776 0.000000 0.000000
                        CHANNELS 3 Zrotation Xrotation Yrotation
                        JOINT RightWrist
                        {
                            OFFSET -26.439411 0.000000 0.000000
                            CHANNELS 3 Zrotation Xrotation Yrotation
                            End Site
                            {
                                OFFSET -0.000000 -14.833334 0.000000
                            }
                        }
                    }
                }
            }
        }
    JOINT LeftHip
    {
        OFFSET 11.866667 0.000000 0.000000
        CHANNELS 3 Zrotation Xrotation Yrotation
        JOINT LeftKnee
        {
            OFFSET -0.000000 -38.580112 0.000000
            CHANNELS 3 Zrotation Xrotation Yrotation
            JOINT LeftAnkle
            {
                OFFSET -0.000000 -41.767254 0.000000
                CHANNELS 3 Zrotation Xrotation Yrotation
                End Site
                {
                    OFFSET -0.000000 -4.944444 16.811111
                }
            }
        }
    }
    JOINT RightHip
    {
        OFFSET -11.866667 0.000000 0.000000
        CHANNELS 3 Zrotation Xrotation Yrotation
        JOINT RightKnee
        {
            OFFSET -0.000000 -38.580112 0.000000
            CHANNELS 3 Zrotation Xrotation Yrotation
            JOINT RightAnkle
            {
                OFFSET -0.000000 -41.767254 0.000000
                CHANNELS 3 Zrotation Xrotation Yrotation
                End Site
                {
                    OFFSET -0.000000 -4.944444 16.811111
                }
            }
        }
    }
}
MOTION
Frames:    5
Frame Time:    0.010000
66.352631    89.884125    -42.711891    -6.143497    2.905583    -85.421051    3.332164    11.814416    2.850135    1.339999    3.348763    19.339621    -5.659384    -19.148638    18.626995    -20.905460    -1.126455    6.207244    -31.846437    42.084438    -35.424751    10.545236    -9.527048    -84.365311    159.766708    21.165836    8.274415    11.921216    -0.031190    -0.109267    -59.469593    60.452225    115.250595    -44.978821    -12.278974    29.041006    -128.683899    22.102409    -29.466425    13.993934    6.512573    12.172392    -0.138837    2.273402    -5.202155    -20.326904    -5.593193    21.488806    4.676158    10.086693    7.562644    -2.212099    8.520174    14.576318    -4.300196    -8.521104    -32.756039    
65.896881    89.914452    -42.650639    -7.221758    2.795223    -85.387474    2.913329    12.671914    2.652736    4.940034    4.155504    18.498741    -7.305172    -19.927597    17.378101    -20.383444    -0.937406    4.427621    -31.943478    41.925285    -34.300701    10.045259    -8.740219    -84.626190    161.549881    21.039436    7.752495    12.956440    -0.120716    -1.606869    -58.304573    60.774330    114.195221    -45.501431    -12.306337    28.347408    -123.030441    19.694616    -32.215176    14.004892    7.921649    14.239532    -0.096499    2.278536    -7.835031    -20.547939    -6.065139    21.726135    4.569315    11.790994    7.935184    -2.083597    7.917433    13.880102    -4.276869    -8.504751    -32.516808    
66.291679    89.887512    -42.803936    -6.296156    3.013865    -85.483353    3.024184    11.640654    2.778474    4.907159    4.076314    18.481907    -7.242150    -19.635872    17.401274    -20.584257    -0.897422    4.769548    -30.731184    42.579266    -35.342857    10.261189    -9.434972    -84.328285    160.683975    20.791382    8.148057    12.908114    -0.158969    -1.538015    -59.071728    60.712189    114.872330    -45.671177    -12.206217    28.128181    -120.910103    19.494072    -32.821602    14.224753    6.610401    12.728326    -0.170507    2.460305    -5.576991    -20.630190    -5.659072    21.430435    4.843025    9.998390    7.789578    -2.095048    8.906560    14.059456    -4.327332    -8.566415    -32.430748    
66.310959    89.897964    -42.848385    -6.281755    3.069496    -85.515549    3.053872    11.563446    2.768892    5.018949    4.165963    18.424398    -7.303222    -19.721449    17.334652    -20.627846    -0.856658    4.733378    -30.464609    42.627632    -35.467754    10.336431    -9.407201    -84.271141    161.011368    20.831238    8.226870    12.932120    -0.193901    -1.589106    -59.324570    60.710514    115.080566    -45.934067    -12.144853    27.808577    -118.484161    18.686256    -33.925339    14.322373    6.535506    12.779573    -0.184270    2.557919    -5.508608    -20.705763    -5.642870    21.380716    4.916964    9.825029    7.832922    -2.053210    9.127567    13.927850    -4.334595    -8.597561    -32.318817    
66.342674    89.912178    -42.899559    -6.253768    3.136035    -85.555504    3.104258    11.476295    2.755678    5.035695    4.234063    18.388870    -7.299613    -19.811832    17.297775    -20.673256    -0.888486    4.724882    -30.251684    42.717094    -35.563663    10.396437    -9.436564    -84.208672    161.266907    20.703348    8.293884    12.920005    -0.173773    -1.602744    -59.622738    60.645054    115.301521    -46.163563    -12.079673    27.531433    -116.008408    17.849222    -35.100407    14.435567    6.425111    12.789701    -0.198981    2.683432    -5.376904    -20.787930    -5.617858    21.320633    5.001259    9.597198    7.861829    -2.004313    9.401686    13.805417    -4.345597    -8.637081    -32.194881    
